# xmcd
#
# Track frame offsets:
#	150
#	15869
#	34430
#	50510
#	67670
#	85659
#	104331
#	121866
#	138739
#	160231
#	178733
#	195952
#	217038
#	235053
#	253201
#	271208
#	288267
#	303594
#
# Disc length: 4349 seconds
#
# Revision: 0
# Processed by: cddbd v1.5.2PL0 Copyright (c) Steve Scherf et al.
# Submitted via: EasyCDDAExtractor 12.0.7.1
#
DISCID=f810fb12
DTITLE=Игорь Слуцкий - Аллея шансона
DYEAR=2011
DGENRE=Chanson
TTITLE0=Приходите в мой дом (New версия)
TTITLE1=За волю
TTITLE2=Рябина
TTITLE3=Задушевная
TTITLE4=Запорошены поля
TTITLE5=Туда
TTITLE6=Не жалейте о прожитом
TTITLE7=Только ты одна
TTITLE8=Главное жизнь
TTITLE9=Кукушки
TTITLE10=Думы мои думы
TTITLE11=Не разменять себя по мелочам
TTITLE12=Оборвется струна
TTITLE13=А над храмом кресты
TTITLE14=Тишина Матросская
TTITLE15=Белые поленья
TTITLE16=Не боли душа
TTITLE17=Казачья
EXTD=
EXTT0=
EXTT1=
EXTT2=
EXTT3=
EXTT4=
EXTT5=
EXTT6=
EXTT7=
EXTT8=
EXTT9=
EXTT10=
EXTT11=
EXTT12=
EXTT13=
EXTT14=
EXTT15=
EXTT16=
EXTT17=
PLAYORDER=
